<?xml version="1.0" standalone="no"?>
<!DOCTYPE svg PUBLIC "-//W3C//DTD SVG 20010904//EN"
 "http://www.w3.org/TR/2001/REC-SVG-20010904/DTD/svg10.dtd">
<svg version="1.0" xmlns="http://www.w3.org/2000/svg"
 width="689.000000pt" height="362.000000pt" viewBox="0 0 689.000000 362.000000"
 preserveAspectRatio="xMidYMid meet">

<g transform="translate(0.000000,362.000000) scale(0.100000,-0.100000)"
fill="white" stroke="none">
<path d="M3775 3476 c-92 -42 -157 -120 -259 -308 l-47 -87 -47 5 c-26 3 -62
7 -79 9 -31 3 -35 0 -69 -61 -20 -36 -34 -68 -30 -71 3 -3 54 -12 113 -20 60
-7 249 -31 422 -54 173 -22 317 -36 321 -32 4 4 20 37 36 71 21 50 25 65 15
72 -7 4 -53 11 -102 15 -49 3 -91 10 -93 14 -3 4 19 67 49 139 64 152 70 206
32 263 -47 71 -163 91 -262 45z m175 -49 c45 -27 48 -152 5 -152 -65 1 -274
18 -284 24 -16 10 41 85 86 112 63 39 146 46 193 16z m-240 -468 c212 -23 387
-43 389 -45 3 -3 0 -9 -6 -15 -16 -16 -815 81 -821 100 -3 10 3 12 24 7 16 -3
202 -24 414 -47z"/>
<path d="M4056 3235 c-3 -10 1 -15 13 -15 29 0 45 -25 31 -49 -7 -15 -21 -21
-44 -21 -25 0 -35 -6 -44 -25 -17 -38 -15 -41 12 -16 l24 23 179 -17 c98 -10
183 -21 189 -24 7 -4 -46 -144 -143 -381 -85 -206 -240 -584 -345 -840 -105
-256 -194 -469 -198 -473 -4 -5 -95 14 -201 42 -107 27 -347 89 -534 136 -528
135 -677 174 -680 177 -3 3 350 589 397 660 13 20 17 20 65 9 47 -12 54 -17
84 -67 30 -49 40 -57 102 -82 60 -23 71 -32 84 -64 11 -27 24 -40 47 -48 18
-6 39 -22 46 -36 15 -28 47 -39 90 -31 16 4 51 4 79 0 47 -5 51 -8 62 -42 12
-39 89 -174 96 -168 7 8 -17 148 -33 185 -8 20 -19 55 -24 78 -5 22 -12 48
-16 58 -6 15 -3 15 20 5 14 -7 29 -10 32 -7 3 3 20 49 39 102 28 77 35 112 35
169 0 143 5 135 -142 216 -99 56 -137 72 -161 69 l-32 -3 -49 137 -49 137 59
96 c53 86 61 95 84 91 14 -3 81 -10 148 -17 91 -8 127 -8 135 0 8 8 5 11 -14
12 -13 0 -90 6 -171 12 l-148 13 -50 -79 c-27 -43 -54 -76 -58 -73 -5 3 -14
23 -22 45 -14 44 -37 53 -60 26 -10 -12 -8 -28 13 -87 l26 -72 -128 -200 c-71
-111 -251 -394 -400 -629 l-272 -429 13 -34 c8 -24 21 -37 42 -44 76 -24 1489
-420 1499 -420 7 0 222 312 478 693 l467 692 -52 7 c-28 4 -111 12 -183 19
-73 7 -137 15 -142 19 -6 3 20 85 63 198 45 119 71 202 68 217 -5 27 -4 27
-213 46 l-127 11 5 38 c4 31 1 40 -18 54 -29 20 -65 21 -73 1z m-972 -389 c20
-54 36 -102 36 -106 0 -10 -178 -60 -213 -60 -15 0 -27 2 -27 5 0 2 30 53 66
112 93 151 95 155 99 151 2 -2 20 -48 39 -102z m276 -181 c63 -35 118 -73 122
-82 3 -10 7 -54 7 -99 1 -65 -5 -95 -28 -159 -16 -44 -33 -81 -39 -83 -6 -2
-19 9 -28 23 -15 24 -16 34 -6 84 9 44 9 72 1 117 -7 32 -15 62 -18 66 -4 4
-31 11 -60 15 l-53 8 -29 80 c-16 44 -29 83 -29 88 0 21 57 0 160 -58z m-192
-51 l28 -82 -34 -46 -34 -46 26 -33 c14 -17 42 -55 62 -82 20 -28 59 -65 86
-83 55 -37 78 -74 61 -100 -23 -37 -75 -27 -129 26 -25 23 -74 53 -129 76
-157 67 -182 83 -224 140 -31 42 -48 56 -78 63 -23 5 -39 15 -41 26 -2 10 19
54 46 98 l50 80 58 3 c33 2 93 15 134 28 41 14 78 22 82 19 4 -3 20 -43 36
-87z m169 -106 c13 -18 34 -104 29 -120 -3 -7 -7 -26 -11 -42 -3 -15 -8 -27
-10 -25 -2 3 -20 48 -39 102 l-35 97 28 0 c16 0 33 -6 38 -12z m-92 -108 c14
-40 25 -78 25 -83 0 -6 -23 20 -51 57 -50 66 -50 68 -34 93 22 32 29 24 60
-67z m-130 -193 c11 -9 14 -16 8 -20 -6 -4 -22 2 -34 13 -18 14 -20 19 -8 20
8 0 23 -6 34 -13z m95 -85 c-29 -5 -50 15 -50 46 l0 26 36 -35 c33 -31 34 -34
14 -37z"/>
<path d="M5547 1424 c-4 -4 -7 -239 -7 -521 l0 -514 63 3 62 3 0 515 0 515
-55 3 c-31 2 -59 0 -63 -4z"/>
<path d="M4115 1386 c-81 -36 -129 -121 -129 -231 -1 -93 25 -145 149 -298
134 -167 151 -207 120 -285 -31 -78 -121 -104 -212 -62 l-43 19 0 -55 c0 -53
1 -56 33 -68 98 -41 205 -27 273 36 55 50 79 112 78 198 0 90 -29 147 -153
305 -69 89 -106 146 -118 181 -15 50 -15 53 5 96 36 73 101 95 191 63 l41 -14
0 50 c0 48 -2 51 -35 65 -43 18 -160 18 -200 0z"/>
<path d="M90 890 l0 -500 65 0 65 0 0 220 c0 121 1 220 3 220 1 0 40 4 86 10
105 12 141 34 179 110 24 49 27 66 27 160 0 115 -12 163 -53 212 -47 55 -90
68 -239 68 l-133 0 0 -500z m226 385 c47 -20 64 -63 64 -167 0 -120 -27 -159
-119 -174 l-41 -7 0 182 0 181 30 0 c17 0 46 -7 66 -15z"/>
<path d="M4580 1170 l0 -90 -40 0 -40 0 0 -50 0 -50 40 0 40 0 2 -292 3 -293
63 -3 62 -3 0 296 0 295 40 0 40 0 0 50 0 50 -40 0 -40 0 0 90 0 90 -65 0 -65
0 0 -90z"/>
<path d="M1533 1079 c-17 -5 -50 -30 -72 -55 l-41 -47 0 52 0 52 -62 -3 -63
-3 -3 -342 -2 -343 64 0 65 0 3 254 c4 300 4 300 101 326 l57 14 0 53 c0 29
-3 53 -7 52 -5 0 -22 -5 -40 -10z"/>
<path d="M1975 1079 c-17 -5 -44 -22 -60 -39 -37 -39 -45 -38 -45 5 l0 35 -60
0 -60 0 0 -495 0 -495 65 0 65 0 0 186 0 186 39 -35 c22 -20 55 -39 74 -42 72
-14 144 45 165 135 32 139 21 395 -21 479 -35 70 -94 99 -162 80z m22 -114
c34 -24 45 -100 42 -267 -4 -130 -6 -150 -25 -175 -40 -54 -106 -39 -124 28
-14 52 -15 315 0 367 16 60 61 79 107 47z"/>
<path d="M3180 1068 c-25 -13 -54 -37 -65 -55 -11 -18 -23 -32 -27 -33 -5 0
-8 23 -8 50 l0 50 -60 0 -60 0 0 -345 0 -345 60 0 60 0 0 226 c0 260 8 307 54
335 17 10 50 21 74 25 l43 6 -3 51 c-2 28 -8 52 -13 54 -6 2 -31 -7 -55 -19z"/>
<path d="M3574 1081 c-74 -18 -130 -88 -155 -191 -18 -80 -16 -272 4 -341 34
-114 95 -164 199 -162 113 4 173 65 191 196 l6 37 -60 0 -59 0 0 -34 c0 -19
-4 -46 -10 -61 -19 -49 -96 -55 -126 -10 -15 24 -36 168 -27 192 4 10 37 13
144 13 l139 0 0 83 c0 101 -21 176 -61 222 -41 46 -123 71 -185 56z m102 -113
c8 -16 18 -58 21 -93 l6 -65 -83 0 -83 0 5 75 c5 80 21 111 62 117 36 6 56 -3
72 -34z"/>
<path d="M6010 1078 c-113 -32 -161 -140 -161 -358 0 -245 81 -355 243 -330
93 14 147 74 162 183 l7 47 -55 0 -55 0 -7 -45 c-9 -64 -32 -89 -79 -88 -21 1
-44 8 -52 16 -20 19 -32 79 -33 155 l0 62 146 0 147 0 -8 91 c-3 50 -13 112
-21 138 -13 45 -57 97 -99 119 -33 16 -98 21 -135 10z m107 -105 c9 -13 18
-55 21 -93 l5 -70 -83 0 -83 0 5 70 c3 39 12 80 21 94 27 41 87 41 114 -1z"/>
<path d="M6572 1069 c-65 -33 -97 -87 -97 -163 1 -81 18 -110 126 -215 81 -78
89 -90 89 -124 0 -59 -29 -80 -99 -74 -31 3 -66 8 -78 12 -22 7 -23 5 -23 -42
0 -49 1 -50 39 -61 52 -16 135 -15 174 2 91 39 132 148 92 244 -9 20 -57 76
-110 128 -90 87 -95 94 -95 133 0 36 4 44 33 62 32 20 76 21 135 3 21 -6 22
-3 22 40 0 41 -3 48 -27 57 -16 6 -53 13 -83 16 -43 3 -64 0 -98 -18z"/>
<path d="M692 793 c3 -267 4 -290 23 -322 11 -19 32 -43 46 -53 53 -40 215
-40 268 0 14 10 34 36 45 58 20 36 21 59 24 322 l3 282 -60 0 -60 0 -3 -268
c-3 -231 -5 -271 -20 -294 -34 -52 -108 -43 -133 17 -12 27 -15 89 -15 290 l0
255 -61 0 -60 0 3 -287z"/>
<path d="M2352 798 c3 -264 4 -286 24 -323 30 -58 85 -86 172 -87 86 -1 134
15 166 53 41 48 46 88 46 372 l0 267 -60 0 -60 0 -1 -257 c-1 -142 -4 -269 -8
-282 -10 -38 -53 -64 -90 -56 -62 13 -66 29 -69 327 l-3 268 -60 0 -60 0 3
-282z"/>
<path d="M4890 1074 c0 -4 41 -145 91 -314 l92 -308 -38 -123 c-21 -68 -46
-150 -56 -181 l-17 -58 53 0 54 0 31 98 c17 53 87 269 156 479 68 211 124 390
124 398 0 11 -12 15 -53 15 l-54 0 -66 -223 c-37 -123 -67 -229 -67 -235 0 -7
-4 -12 -9 -12 -5 0 -32 98 -61 218 -28 119 -54 225 -56 235 -4 14 -17 17 -65
17 -32 0 -59 -3 -59 -6z"/>
</g>
</svg>
